<svg width="24" height="20" viewBox="0 0 24 20" fill="none" xmlns="http://www.w3.org/2000/svg">
<path d="M14.4 3.94739V12.4211H2.4V3.94739H14.4ZM2.4 1.52634C1.07625 1.52634 0 2.61203 0 3.94739V12.4211C0 13.7564 1.07625 14.8421 2.4 14.8421H6.79875L6.3975 16.0527H3.6C2.93625 16.0527 2.4 16.5936 2.4 17.2632C2.4 17.9328 2.93625 18.4737 3.6 18.4737H13.2C13.8638 18.4737 14.4 17.9328 14.4 17.2632C14.4 16.5936 13.8638 16.0527 13.2 16.0527H10.3988L9.9975 14.8421H14.4C15.7238 14.8421 16.8 13.7564 16.8 12.4211V3.94739C16.8 2.61203 15.7238 1.52634 14.4 1.52634H2.4ZM19.8 1.52634C18.8063 1.52634 18 2.33966 18 3.34213V16.6579C18 17.6604 18.8063 18.4737 19.8 18.4737H22.2C23.1938 18.4737 24 17.6604 24 16.6579V3.34213C24 2.33966 23.1938 1.52634 22.2 1.52634H19.8ZM20.4 3.94739H21.6C21.93 3.94739 22.2 4.21976 22.2 4.55265C22.2 4.88555 21.93 5.15792 21.6 5.15792H20.4C20.07 5.15792 19.8 4.88555 19.8 4.55265C19.8 4.21976 20.07 3.94739 20.4 3.94739ZM19.8 6.97371C19.8 6.64081 20.07 6.36844 20.4 6.36844H21.6C21.93 6.36844 22.2 6.64081 22.2 6.97371C22.2 7.3066 21.93 7.57897 21.6 7.57897H20.4C20.07 7.57897 19.8 7.3066 19.8 6.97371ZM21 13.0263C21.3183 13.0263 21.6235 13.1539 21.8485 13.3809C22.0736 13.6079 22.2 13.9158 22.2 14.2369C22.2 14.5579 22.0736 14.8658 21.8485 15.0928C21.6235 15.3199 21.3183 15.4474 21 15.4474C20.6817 15.4474 20.3765 15.3199 20.1515 15.0928C19.9264 14.8658 19.8 14.5579 19.8 14.2369C19.8 13.9158 19.9264 13.6079 20.1515 13.3809C20.3765 13.1539 20.6817 13.0263 21 13.0263Z" fill="#0E488D"/>
</svg>
