<svg width="22" height="22" viewBox="0 0 22 22" fill="none" xmlns="http://www.w3.org/2000/svg">
<rect width="22" height="22" rx="11" fill="#E46E00"/>
<path d="M11.2171 10.708C10.5771 10.708 9.82506 11.06 9.28106 11.956C9.50506 14.116 10.3051 14.948 11.2971 14.948C12.1771 14.948 12.9131 14.212 12.9131 12.756C12.9131 11.364 12.2411 10.708 11.2171 10.708ZM11.3451 16.724C9.08906 16.724 7.08906 14.916 7.08906 10.74C7.08906 6.324 9.28106 4.436 11.6651 4.436C13.1211 4.436 14.1611 5.044 14.8811 5.78L13.6331 7.188C13.2171 6.708 12.4971 6.324 11.8091 6.324C10.4491 6.324 9.32906 7.348 9.23306 10.324C9.87306 9.524 10.8971 9.044 11.6651 9.044C13.6491 9.044 15.0571 10.228 15.0571 12.756C15.0571 15.188 13.3611 16.724 11.3451 16.724Z" fill="white"/>
</svg>
