<svg width="22" height="22" viewBox="0 0 22 22" fill="none" xmlns="http://www.w3.org/2000/svg">
<rect width="22" height="22" rx="11" fill="white"/>
<path d="M10.6731 16.724C8.80106 16.724 7.53706 16.02 6.70506 15.076L7.80906 13.588C8.51306 14.276 9.37706 14.804 10.4491 14.804C11.6491 14.804 12.4651 14.212 12.4651 13.14C12.4651 11.988 11.7771 11.252 9.20106 11.252V9.572C11.3771 9.572 12.0811 8.82 12.0811 7.764C12.0811 6.836 11.5051 6.292 10.4971 6.292C9.64906 6.292 8.96106 6.676 8.25706 7.332L7.05706 5.892C8.08106 4.996 9.21706 4.436 10.6091 4.436C12.8971 4.436 14.4491 5.572 14.4491 7.588C14.4491 8.868 13.7291 9.796 12.4811 10.292V10.372C13.8091 10.74 14.8331 11.732 14.8331 13.284C14.8331 15.46 12.9291 16.724 10.6731 16.724Z" fill="#E46E00"/>
</svg>
