<svg width="22" height="22" viewBox="0 0 22 22" fill="none" xmlns="http://www.w3.org/2000/svg">
<rect width="22" height="22" rx="11" fill="white"/>
<path d="M10.7051 16.724C8.83306 16.724 7.58506 15.988 6.70506 15.108L7.79306 13.604C8.46506 14.26 9.29706 14.804 10.4011 14.804C11.6331 14.804 12.4971 14.02 12.4971 12.628C12.4971 11.252 11.6971 10.484 10.4971 10.484C9.79306 10.484 9.40906 10.66 8.72106 11.108L7.64906 10.404L7.96906 4.644H14.3051V6.628H10.0011L9.77706 9.14C10.2571 8.916 10.6571 8.804 11.2011 8.804C13.1851 8.804 14.8491 9.988 14.8491 12.564C14.8491 15.204 12.8971 16.724 10.7051 16.724Z" fill="#E46E00"/>
</svg>
