<svg width="104" height="104" viewBox="0 0 104 104" fill="none" xmlns="http://www.w3.org/2000/svg">
<g filter="url(#filter0_d_222_397)">
<rect x="4" y="4" width="88" height="88" rx="44" fill="url(#paint0_linear_222_397)"/>
<path d="M27.5156 70V53.3477H21.5684V49.957H37.4961V53.3477H31.5625V70H27.5156ZM38.7812 60.1016C38.7812 58.0599 39.0866 56.3464 39.6973 54.9609C40.153 53.9401 40.7728 53.0241 41.5566 52.2129C42.3496 51.4017 43.2155 50.8001 44.1543 50.4082C45.403 49.8796 46.8431 49.6152 48.4746 49.6152C51.4277 49.6152 53.7884 50.5312 55.5566 52.3633C57.334 54.1953 58.2227 56.7428 58.2227 60.0059C58.2227 63.2415 57.3431 65.7754 55.584 67.6074C53.8249 69.4303 51.4733 70.3418 48.5293 70.3418C45.5488 70.3418 43.179 69.4349 41.4199 67.6211C39.6608 65.7982 38.7812 63.2917 38.7812 60.1016ZM42.9512 59.9648C42.9512 62.2344 43.4753 63.957 44.5234 65.1328C45.5716 66.2995 46.9023 66.8828 48.5156 66.8828C50.1289 66.8828 51.4505 66.304 52.4805 65.1465C53.5195 63.9798 54.0391 62.2344 54.0391 59.9102C54.0391 57.6133 53.5332 55.8997 52.5215 54.7695C51.5189 53.6393 50.1836 53.0742 48.5156 53.0742C46.8477 53.0742 45.5033 53.6484 44.4824 54.7969C43.4616 55.9362 42.9512 57.6589 42.9512 59.9648ZM61.3945 70V49.957H67.8887C70.3496 49.957 71.9538 50.0573 72.7012 50.2578C73.8496 50.5586 74.8112 51.2148 75.5859 52.2266C76.3607 53.2292 76.748 54.528 76.748 56.123C76.748 57.3535 76.5247 58.388 76.0781 59.2266C75.6315 60.0651 75.0618 60.7259 74.3691 61.209C73.6855 61.6829 72.9883 61.9974 72.2773 62.1523C71.3112 62.3438 69.9121 62.4395 68.0801 62.4395H65.4414V70H61.3945ZM65.4414 53.3477V59.0352H67.6562C69.2513 59.0352 70.3177 58.9303 70.8555 58.7207C71.3932 58.5111 71.8125 58.1829 72.1133 57.7363C72.4232 57.2897 72.5781 56.7702 72.5781 56.1777C72.5781 55.4486 72.3639 54.847 71.9355 54.373C71.5072 53.8991 70.9648 53.6029 70.3086 53.4844C69.8255 53.3932 68.8548 53.3477 67.3965 53.3477H65.4414Z" fill="#0E488D"/>
<path d="M39.0006 36.9732H57.0006C57.1828 36.9727 57.3614 36.9224 57.5173 36.8279C57.6731 36.7333 57.8001 36.5981 57.8848 36.4367C57.9694 36.2753 58.0085 36.0939 57.9977 35.912C57.9869 35.73 57.9267 35.5545 57.8236 35.4042L48.8236 22.4042C48.4506 21.8652 47.5526 21.8652 47.1786 22.4042L38.1786 35.4042C38.0744 35.5542 38.0133 35.7298 38.0019 35.912C37.9906 36.0943 38.0294 36.2761 38.1141 36.4379C38.1988 36.5996 38.3262 36.735 38.4825 36.8294C38.6388 36.9238 38.818 36.9735 39.0006 36.9732Z" fill="#0E488D"/>
</g>
<defs>
<filter id="filter0_d_222_397" x="0" y="0" width="104" height="104" filterUnits="userSpaceOnUse" color-interpolation-filters="sRGB">
<feFlood flood-opacity="0" result="BackgroundImageFix"/>
<feColorMatrix in="SourceAlpha" type="matrix" values="0 0 0 0 0 0 0 0 0 0 0 0 0 0 0 0 0 0 127 0" result="hardAlpha"/>
<feOffset dx="4" dy="4"/>
<feGaussianBlur stdDeviation="4"/>
<feComposite in2="hardAlpha" operator="out"/>
<feColorMatrix type="matrix" values="0 0 0 0 0 0 0 0 0 0 0 0 0 0 0 0 0 0 0.25 0"/>
<feBlend mode="normal" in2="BackgroundImageFix" result="effect1_dropShadow_222_397"/>
<feBlend mode="normal" in="SourceGraphic" in2="effect1_dropShadow_222_397" result="shape"/>
</filter>
<linearGradient id="paint0_linear_222_397" x1="15" y1="21.5" x2="87" y2="71.5" gradientUnits="userSpaceOnUse">
<stop stop-color="#F3FBFF"/>
<stop offset="1" stop-color="white"/>
</linearGradient>
</defs>
</svg>
